<?xml version="1.0" encoding="utf-8"?>
<!-- Generator: Adobe Illustrator 23.0.4, SVG Export Plug-In . SVG Version: 6.00 Build 0)  -->
<svg version="1.1" xmlns="http://www.w3.org/2000/svg" xmlns:xlink="http://www.w3.org/1999/xlink" x="0px" y="0px"
	 viewBox="0 0 432 86.6" enable-background="new 0 0 432 86.6" xml:space="preserve">
<g id="text">
	<g>
		<g>
			<path fill="#393939" d="M78.3,65.2h19.8V42.7h16.5V27H98.1v-6.4h22V4.9H78.3V65.2z M123.9,65.2H143V4.9h-19.1V65.2z M147,65.2
				h18.8V23.3H147V65.2z M147,17.8h18.8V4.9H147V17.8z M197.8,27.9h-0.2c-2.7-4.3-7-5.8-11.9-5.8c-10.4,0-16.1,6.7-16.1,22.4
				c0,15.2,7.4,20,15.6,20c4.7,0,9.9-1,13-5.4h0.2v5.3c0,5.3-1.8,7.1-5.3,7.1c-1.4,0-2.5-0.3-3.3-0.9c-0.8-0.6-1.1-1.5-1.1-2.4
				h-17.5c0.9,8.5,4.1,14.2,20.5,14.2c14.9,0,22.9-3.8,22.9-20.8V23.3h-16.6L197.8,27.9z M191.5,53.1c-4.6,0-5.8-4.1-5.8-9.2
				c0-4.7,0.4-10.1,5.9-10.1c5.6,0,6.2,4.8,6.2,9.8C197.8,48.8,196.9,53.1,191.5,53.1z M251.7,22c-6.8,0-10.3,2.4-13.2,6.9h-0.2V4.9
				h-18.8v60.3h18.8V39.1c0-3.3,2-4.7,4.5-4.7c2.5,0,4.2,1.8,4.2,4.8v26h17.8V37.3C264.8,26.2,259.5,22,251.7,22z M290,9.5l-16.6,7
				v6.8h-5.4v12.4h5.4v19c0,9.4,4.5,11.8,11.5,11.8c4,0,8.9-0.8,13.4-1.8V52.3c-1.8,0.5-3.5,0.5-4.9,0.5c-2.4,0-3.4-1.1-3.4-4.3
				V35.6h9.1V23.3H290V9.5z M339.6,31h-29.8V4.7h-5.9v60.5h5.9V36.3h29.8v28.9h5.9V4.7h-5.9V31z M378.9,24l0,22.3
				c0,4.4-1.3,8.2-3.5,11.2c-2.2,3-4.9,4.5-8.4,4.6c-0.1,0-0.1,0-0.2,0c-0.1,0-0.2,0-0.2,0h-0.4c-3.6-0.3-6.3-1.3-8-3.5
				c-1.7-2.1-2.3-5.8-2.3-10.5V23.8h-5.3v26.4c0,4.9,1.1,8.9,3.4,11.9c2.3,3,6.2,4.5,11.7,4.5c4,0,6.8-0.6,8.6-1.9s3.3-3,4.6-5.3
				c0,1.8,0,3.3,0,4.5v0.7c0,0.3,0,0.6,0,0.7h5.3c0-1.9,0-3.9,0-5.8c0-1.8,0-3.4,0-4.8l0-30.7H378.9z M420.8,26.9
				c-3.4-3.6-6.8-5.1-11.2-5.1c-0.1,0-0.2,0-0.3,0c-0.1,0-0.2,0-0.3,0h-0.6c-0.8,0-1.8,0.1-3,0.3c-1.1,0.2-2.3,0.5-3.5,1
				c-1.3,0.5-2.5,1.2-3.6,2c-1.1,0.8-2.1,1.9-3,3.2l0-23.6h-5.9l-0.1,46.1c0,1.3,0,2.9,0,5c0,2.1,0,5.2,0,9.4h6v-5.8
				c0.9,2.3,2.8,3.9,5.5,5.2c2.7,1.3,5.7,1.9,9,1.9h0.8c5,0,9-2.4,11.9-7.3c2.9-4.8,3.4-10.3,3.4-16.4
				C425.5,35.9,424.1,30.4,420.8,26.9z M420.9,42.9c0,5.6-0.9,10.1-2.6,13.7c-1.8,3.6-4.6,5.4-8.6,5.4c-4.9,0-8.6-1.8-11.2-5.3
				c-2.6-3.5-3.9-7.9-3.9-13.2c0-5,1.3-9,4-12.3c2.6-3.2,5.9-4.8,9.8-4.8c3.5,0,6.1,1,7.8,3c1.8,2,3,4.2,3.7,6.6
				c0.4,1.2,0.7,2.5,0.8,3.7C420.8,41,420.9,42,420.9,42.9L420.9,42.9z M389.2,4.8L389.2,4.8L389.2,4.8L389.2,4.8z"/>
		</g>
	</g>
</g>
<g id="orange">
	<path fill-rule="evenodd" clip-rule="evenodd" fill="#F26539" d="M75.6,47l0,18.2l-12,0c0,0-19.2,0-19.2-18.2L75.6,47z"/>
</g>
<g id="yellow">
	<path fill-rule="evenodd" clip-rule="evenodd" fill="#F8CB34" d="M75.6,26l0,18l-32.4,0c0,0-19.2,0-19.2-18L75.6,26z"/>
</g>
<g id="blue">
	<path fill-rule="evenodd" clip-rule="evenodd" fill="#2DB9E3" d="M75.6,4.9l0,18l-52.8,0c0,0-19.2,0-19.2-18L75.6,4.9z"/>
</g>
</svg>
